<svg id="レイヤー_1" data-name="レイヤー 1" xmlns="http://www.w3.org/2000/svg" viewBox="0 0 1368 1124"><defs><style>.cls-1{fill:#282828;}.cls-2{fill:#22a6e0;}</style></defs><title>アートボード 1icon-svg</title><path class="cls-1" d="M1368.41,406.09q0,292.1-229.72,508.37-222.6,209.2-500.47,209.2-204.47,0-322.87-110.52T196.94,710q0-99.46,46.58-213.14Q287.71,388.73,360.35,301.1H707.68Q618.48,380,560.06,503.19q-59.19,126.3-59.2,242.35,0,95.52,39.47,161.82Q587.7,986.31,676.9,986.3q148.4,0,268.39-191.82,106.58-172.08,106.57-330,0-125.52-72.62-195.38T778.73,199.27H-.41L120.37.34H846.62q221,0,359.17,90Q1368.41,196.9,1368.41,406.09Z"/><circle class="cls-2" cx="753.2" cy="607.47" r="97.57"/></svg>